<?xml version="1.0" standalone="no"?>
<!DOCTYPE svg PUBLIC "-//W3C//DTD SVG 20010904//EN"
 "http://www.w3.org/TR/2001/REC-SVG-20010904/DTD/svg10.dtd">
<svg version="1.0" xmlns="http://www.w3.org/2000/svg"
 width="500.000000pt" height="500.000000pt" viewBox="0 0 500.000000 500.000000"
 preserveAspectRatio="xMidYMid meet">
<metadata>
Created by potrace 1.11, written by Peter Selinger 2001-2013
</metadata>
<g transform="translate(0.000000,500.000000) scale(0.100000,-0.100000)"
fill="#000000" stroke="none">
<path d="M891 4478 c-13 -5 -24 -32 -40 -103 -13 -53 -21 -98 -19 -100 2 -2
44 -5 94 -6 204 -4 304 -37 350 -115 27 -45 29 -57 29 -144 -1 -52 -4 -113 -8
-135 -4 -22 -10 -58 -13 -80 -3 -22 -22 -110 -41 -195 -19 -85 -36 -162 -38
-170 -8 -34 -87 -382 -106 -465 -11 -49 -22 -97 -24 -105 -2 -8 -8 -35 -14
-60 -5 -25 -12 -56 -15 -70 -6 -32 -152 -677 -171 -755 -8 -33 -44 -193 -80
-355 -37 -162 -68 -302 -70 -310 -31 -136 -148 -655 -160 -710 -2 -8 -12 -52
-23 -97 -11 -46 -17 -83 -13 -84 19 -3 432 -1 435 2 1 2 24 31 52 64 27 32 56
68 64 78 8 11 20 24 25 31 9 9 345 418 469 571 23 28 43 52 46 55 3 3 98 118
210 255 112 138 218 266 234 285 17 20 45 54 63 75 17 22 78 97 135 166 310
378 555 676 570 694 9 11 126 153 259 315 228 278 378 459 389 470 3 3 20 23
39 45 130 153 338 369 449 465 201 174 413 280 560 280 28 0 45 5 48 15 13 32
52 190 49 193 -8 8 -1337 4 -1344 -4 -10 -11 -55 -193 -50 -198 2 -2 49 -6
104 -9 202 -11 257 -43 249 -142 -9 -103 -112 -249 -509 -724 -45 -53 -161
-193 -260 -311 -99 -118 -182 -217 -185 -220 -3 -3 -95 -113 -205 -245 -110
-132 -250 -301 -313 -375 -63 -74 -121 -144 -130 -155 -21 -24 -178 -212 -201
-240 -9 -11 -63 -76 -121 -145 -58 -69 -112 -134 -121 -145 -10 -11 -36 -42
-59 -70 -23 -27 -49 -59 -59 -70 -52 -64 -120 -144 -143 -170 -16 -16 -28 -33
-28 -37 0 -5 -6 -8 -14 -8 -10 0 -13 7 -10 20 2 11 6 28 8 39 2 10 14 63 26
117 12 55 38 169 57 254 19 85 37 169 39 185 3 17 10 48 16 70 5 22 12 51 15
64 2 14 31 147 64 295 32 149 61 280 63 291 2 11 9 40 15 65 17 72 50 223 55
250 2 14 9 45 15 70 5 25 12 56 15 70 3 14 19 88 36 165 17 77 34 151 36 165
4 22 101 450 108 475 18 72 64 201 86 245 79 154 192 213 427 221 l61 2 17 66
c9 36 18 74 20 84 3 10 7 27 10 38 5 16 1 19 -27 20 -259 4 -1484 2 -1497 -3z"/>
</g>
</svg>
